<svg width="150" height="150" viewBox="16 18 100 100"  xmlns="http://www.w3.org/2000/svg">
<path d="M98.5064 30.7822L115.506 60.2822L34.5064 30.7822L66.0064 19.7822L98.5064 30.7822Z" fill="#009996" fill-opacity="0.25"/>
<path d="M34.5064 30.7821L66.0064 19.7822L23.0064 94.7822L17.0064 60.2822L34.5064 30.7821Z" fill="#009996" fill-opacity="0.25"/>
<path d="M34.5064 30.7821L66.0064 19.7822L23.0064 94.7822L17.0064 60.2822L34.5064 30.7821Z" fill="#009996" fill-opacity="0.25"/>
<path d="M23.0064 94.7821L17.0064 60.2822L83.5064 116.282L49.5064 116.282L23.0064 94.7821Z" fill="#009996" fill-opacity="0.25"/>
<path d="M23.0064 94.7821L17.0064 60.2822L83.5064 116.282L49.5064 116.282L23.0064 94.7821Z" fill="#009996" fill-opacity="0.25"/>
<path d="M83.5064 116.282L49.5064 116.282L115.506 60.2822L109.006 94.7822L83.5064 116.282Z" fill="#009996" fill-opacity="0.25"/>
<path d="M83.5064 116.282L49.5064 116.282L115.506 60.2822L109.006 94.7822L83.5064 116.282Z" fill="#009996" fill-opacity="0.25"/>
<path d="M49.5064 116.282L23.0064 94.7822L109.006 94.7822L83.5064 116.282L49.5064 116.282Z" fill="#009996" fill-opacity="0.25"/>
<path d="M49.5064 116.282L23.0064 94.7822L109.006 94.7822L83.5064 116.282L49.5064 116.282Z" fill="#009996" fill-opacity="0.25"/>
<path d="M17.0064 60.2822L34.5064 30.7822L49.5064 116.282L23.0064 94.7822L17.0064 60.2822Z" fill="#009996" fill-opacity="0.25"/>
<path d="M17.0064 60.2822L34.5064 30.7822L49.5064 116.282L23.0064 94.7822L17.0064 60.2822Z" fill="#009996" fill-opacity="0.25"/>
<path d="M115.506 60.2821L109.006 94.7822L66.0064 19.7821L98.5064 30.7821L115.506 60.2821Z" fill="#009996" fill-opacity="0.25"/>
<path d="M115.506 60.2821L109.006 94.7822L66.0064 19.7821L98.5064 30.7821L115.506 60.2821Z" fill="#009996" fill-opacity="0.25"/>
</svg>
